<svg xmlns="http://www.w3.org/2000/svg" width="65" height="34" viewBox="0 0 65 34">
    <path fill="#4C4C4C" d="M2.3 1.096c-.105.016-.235.068-.392.156-.157.088-.31.204-.459.348-.148.144-.279.312-.392.504-.112.192-.18.4-.205.624 0 .152.033.247.097.287.088.048.205.024.35-.072.169-.103.327-.24.476-.407.149-.168.292-.338.428-.51l.386-.492c.12-.156.233-.278.338-.366.04-.032.094-.04.163-.024.068.016.134.048.199.096.064.048.12.106.169.174.048.068.072.138.072.21.016.912.018 1.795.006 2.651-.012.856-.062 1.744-.15 2.663-.017.096-.055.168-.115.216-.06.048-.127.064-.2.048-.273-.04-.41-.176-.41-.408.04-.703.075-1.407.103-2.111.028-.704.03-1.436.006-2.195-.088.136-.197.284-.325.443-.13.16-.268.31-.417.45-.148.14-.31.256-.482.348-.173.092-.348.138-.525.138-.313 0-.543-.084-.687-.252-.145-.168-.225-.376-.242-.624-.016-.207.002-.415.055-.623.052-.208.128-.408.229-.6.1-.192.221-.368.362-.528.14-.16.295-.3.464-.42.266-.184.527-.308.784-.372s.479-.004.664.18c.04.048.062.122.066.222.004.1-.006.174-.03.222-.057.048-.125.074-.205.078-.08.004-.141-.014-.181-.054zm5.717 1.596c0 .184-.03.41-.09.677-.06.268-.16.538-.296.81-.137.272-.316.528-.537.768-.22.24-.492.424-.814.552-.2.088-.4.134-.597.138-.197.004-.374-.034-.53-.114-.157-.08-.288-.202-.393-.366-.104-.164-.169-.378-.193-.642-.024-.312.002-.626.079-.942.076-.316.197-.612.362-.887.164-.276.363-.522.597-.738.233-.216.494-.388.784-.516.064-.032.126-.03.187.006.06.036.098.11.114.222.418.04.744.15.977.33.233.18.35.414.35.702zM5.387 4.49c.017.112.049.192.097.24.048.048.105.08.169.096.064.008.137 0 .217-.024.08-.024.159-.054.235-.09.077-.036.147-.076.211-.12.065-.044.117-.086.157-.126.225-.208.406-.462.543-.762s.221-.63.253-.99c0-.047-.032-.095-.096-.143-.065-.048-.147-.086-.248-.114-.1-.028-.21-.05-.331-.066-.12-.016-.237-.02-.35-.012-.12.136-.237.284-.35.444-.112.16-.209.33-.29.51-.08.18-.14.367-.18.563-.04.196-.053.394-.036.594zm5.477-2.495c-.008.256-.03.506-.067.75-.036.243-.098.47-.187.677-.048.112-.112.228-.193.348-.08.12-.175.228-.283.324-.109.096-.227.17-.356.222-.129.052-.261.058-.398.018-.12-.032-.22-.09-.296-.174-.076-.084-.136-.178-.18-.282-.045-.104-.075-.212-.09-.324-.017-.112-.017-.216 0-.312.015-.168.06-.342.132-.521.072-.18.165-.354.277-.522.113-.168.241-.322.386-.462.145-.14.298-.254.459-.342.088-.04.18-.072.277-.096.096-.024.18-.016.253.024.04.024.065.068.073.132.006.048-.006.091-.037.13l-.108.11h.048c.08.008.149.04.205.096.056.056.085.124.085.204zM13.517.904c-.37.736-.707 1.53-1.013 2.381-.306.852-.591 1.682-.856 2.49-.04.088-.099.152-.175.192-.077.04-.143.04-.2 0-.056-.048-.096-.11-.12-.186-.024-.076-.04-.158-.048-.246s-.008-.176 0-.264c.008-.088.02-.164.036-.228.21-.776.46-1.538.754-2.285.293-.748.645-1.494 1.055-2.238.04-.08.097-.134.17-.162.071-.028.14-.03.204-.006.097.04.171.108.223.204.053.096.043.212-.03.348zm1.713 2.64c.16.303.24.571.235.803-.004.232-.056.436-.157.612-.1.176-.233.324-.398.444s-.327.216-.488.288c-.386.168-.682.188-.887.06-.205-.128-.3-.368-.283-.72.008-.168.06-.358.157-.57.096-.212.219-.41.367-.594.15-.184.31-.34.483-.468s.344-.192.513-.192c.088 0 .168.022.24.066.073.044.146.134.218.27zM13.95 5.042c.008.04.049.052.121.036s.155-.052.247-.108c.093-.056.183-.126.272-.21.088-.084.152-.178.193-.282.008-.024.008-.064 0-.12-.008-.056-.02-.11-.037-.162-.016-.052-.036-.1-.06-.144-.024-.044-.048-.066-.072-.066-.08-.008-.163.032-.247.12-.085.088-.16.194-.224.318s-.116.246-.156.366c-.04.12-.053.204-.037.252zM9.513 3.267c-.008.056-.002.112.018.168.02.056.058.084.114.084.113 0 .203-.072.272-.216.068-.144.122-.284.163-.42.032-.12.054-.243.066-.371l.042-.432c-.16.2-.31.404-.446.612-.137.207-.213.4-.23.575zm8.419-.527c.099-.025.198-.03.301-.018.105.012.21.074.314.186.104.127.149.287.133.48-.017.191-.063.387-.14.587-.076.2-.162.388-.258.564l-.218.384c.378-.152.73-.326 1.056-.522l.463-.283c.145-.091.283-.179.411-.263l.115-.06c.044-.024.09-.044.139-.06.048-.016.092-.024.132-.024.04 0 .073.012.097.036.064.072.062.184-.006.336-.069.152-.183.308-.344.468-.29.256-.575.474-.856.654-.282.18-.612.35-.99.51-.16.064-.297.106-.41.126-.112.02-.22.026-.325.018-.073-.008-.145-.034-.217-.078-.073-.044-.133-.1-.181-.168-.049-.068-.079-.146-.09-.234-.013-.088.005-.18.054-.276.144-.304.289-.596.434-.876.145-.28.265-.584.362-.912-.113.032-.28.094-.5.186-.222.092-.445.15-.67.174-.089.008-.171-.01-.248-.054-.076-.044-.134-.106-.175-.186-.04-.08-.044-.156-.012-.228.033-.072.089-.128.17-.168l.331-.143c.109-.048.205-.102.29-.162.084-.06.152-.134.205-.222.052-.088.082-.196.09-.324.008-.256-.072-.426-.241-.51-.17-.084-.398-.118-.688-.102-.088.008-.159-.032-.21-.12-.053-.088-.071-.164-.055-.228.008-.088.05-.158.127-.21.076-.052.166-.082.27-.09.21-.016.395-.004.556.036.16.04.297.094.41.162.112.068.207.148.283.24.077.092.135.178.175.258.048.112.077.224.085.336.008.112.006.22-.006.324-.012.104-.035.196-.067.276-.032.08-.064.14-.096.18zm6.405-.204c.144.056.209.124.193.204-.009.056-.053.108-.133.156-.08.047-.173.083-.278.107-.16.032-.34.058-.536.078l-.302.029-.313.025c-.214.016-.42.036-.622.06-.2.024-.378.06-.53.108.016.344.042.678.078 1.002.036.324.095.638.175.942.024.096.02.204-.012.324-.032.12-.085.188-.157.204-.137.04-.26.024-.368-.048-.108-.072-.19-.188-.247-.348-.089-.408-.155-.83-.2-1.266-.043-.436-.07-.872-.078-1.307-.008-.436.002-.864.03-1.284.029-.42.071-.822.127-1.206.016-.08.049-.156.097-.228.048-.072.136-.1.265-.084.137.024.237.078.302.162.064.084.092.15.084.198-.024.352-.046.706-.066 1.062-.02.356-.034.714-.042 1.074.176-.056.377-.096.603-.12.225-.024.452-.032.681-.024.23.008.452.028.67.06.217.032.41.072.579.12zm4.54 2.061l.477-.13c.04-.016.083-.016.127 0s.074.044.09.084c.032.088.03.172-.006.252-.036.08-.088.154-.157.222-.068.068-.144.126-.229.174l-.144.074c-.02.01-.039.016-.055.022-.233.088-.5.172-.802.252-.301.08-.611.152-.929.216-.317.064-.63.116-.94.156-.31.04-.593.064-.85.072-.137.008-.26-.022-.369-.09-.108-.068-.17-.13-.187-.186-.032-.112-.012-.202.06-.27.073-.068.166-.11.278-.126l.143-.023.424-.061c-.016-.216-.03-.442-.042-.678-.012-.236-.018-.466-.018-.69 0-.224.006-.432.018-.624.012-.192.03-.355.054-.491.016-.064.056-.132.12-.204.065-.072.178-.108.338-.108.097 0 .163.038.2.114.036.076.054.17.054.282-.016.4-.018.781-.006 1.145l.032.741.022.38c.458-.087.915-.181 1.369-.281.303-.067.612-.141.927-.224zm-.741-1.198c-.016.136-.054.234-.115.294-.06.06-.122.098-.187.114-.056.008-.134 0-.235-.024-.1-.024-.155-.116-.163-.276l-.012-.207-.036-.872c-.008-.216-.018-.428-.03-.636l-.027-.384-.015-.168c-.137.016-.286.044-.447.084-.16.04-.321.088-.482.144l-.238.087-.232.093c-.153.064-.286.124-.398.18-.089.04-.175.04-.26 0-.084-.04-.147-.096-.187-.168-.04-.072-.048-.152-.024-.24s.06-.152.109-.192c.273-.208.603-.378.989-.51s.752-.214 1.097-.246c.346-.032.58.014.7.138.12.124.189.33.205.618l.012 1.116-.006.593-.018.462zm4.776-.408c-.07.086-.143.168-.22.246l-.117.114c-.121.112-.232.228-.332.348-.1.12-.179.248-.235.384-.057.136-.069.292-.036.468.056.112.08.198.072.258-.008.06-.04.11-.097.15-.144.08-.289.044-.434-.108-.096-.104-.163-.23-.199-.378-.036-.148-.044-.296-.024-.444.02-.148.064-.294.133-.438.068-.144.159-.272.271-.384l.35-.353c.12-.124.23-.254.326-.39s.168-.274.217-.414c.048-.14.06-.286.036-.438-.008-.056-.04-.106-.097-.15-.056-.044-.128-.08-.217-.108-.088-.028-.187-.044-.295-.048-.109-.004-.22.01-.332.042-.185.056-.346.154-.482.294-.137.14-.21.29-.217.45.056.128.052.216-.013.264-.056.04-.114.06-.174.06-.06 0-.115-.016-.163-.048-.193-.192-.276-.4-.248-.624.029-.224.115-.428.26-.612.136-.184.311-.33.524-.438.214-.108.445-.17.694-.186.314-.024.61.03.887.162s.468.354.572.666c.105.352.105.664 0 .936-.104.272-.24.512-.41.72zm-.429 3.666l.007.053c.024.112.008.212-.048.3s-.13.156-.223.204c-.093.048-.19.068-.29.06-.1-.008-.187-.056-.259-.144-.048-.056-.076-.12-.084-.192-.008-.072-.006-.148.006-.228l.02-.117.028-.11c.013-.049.022-.093.027-.134l.003-.059c0-.024.008-.052.024-.083.016-.032.038-.058.067-.078.028-.02.058-.03.09-.03.032 0 .068.024.109.072l.35.27c.096.073.154.145.173.216zM3.795 16.943c.08-.016.167-.026.26-.03.092-.004.177.002.253.018.076.016.14.044.193.084.052.04.082.092.09.156.009.12-.062.224-.21.312-.15.088-.316.16-.501.216-.587.16-1.13.286-1.628.378-.499.092-1.006.166-1.52.222-.193.024-.356.01-.489-.042-.132-.052-.21-.126-.235-.222-.016-.088-.008-.164.024-.228s.077-.116.133-.156c.056-.04.116-.07.18-.09.065-.02.121-.03.17-.03l.76-.096.045-.24c.014-.088.027-.184.039-.288.024-.208.044-.426.06-.653.016-.228.028-.454.036-.678l.011-.416.002-.184-.097.021-.024.003c-.274.056-.517.036-.73-.06-.213-.096-.344-.276-.392-.54-.024-.136-.02-.278.012-.426.032-.148.09-.294.175-.438.085-.144.19-.282.314-.414s.263-.25.416-.353c.16-.104.31-.144.446-.12.137.032.213.108.23.228l.058.001.056.005c.036.004.074.006.114.006.234.024.433.095.598.215.164.12.247.284.247.492 0 .16-.059.336-.175.528-.117.192-.284.364-.5.516l.01.392.001.226c0 .236-.006.476-.018.72l-.042.713c-.016.232-.04.436-.072.612.603-.104 1.17-.224 1.7-.36zM1.07 14.16c.033.096.109.132.23.108.12-.024.25-.072.392-.144.14-.072.265-.156.374-.252.108-.096.166-.172.174-.228.008-.048-.008-.086-.048-.114-.04-.028-.086-.052-.138-.072l-.082-.025-.238-.04c-.08-.009-.133-.049-.157-.12l-.205.21c-.072.075-.135.151-.187.227-.052.076-.09.154-.115.234-.024.08-.024.152 0 .216zm8.685 1.068c-.008.048-.03.11-.066.186-.037.076-.123.122-.26.138-.683.056-1.35.158-2.002.306-.651.148-1.29.322-1.918.521-.185.056-.336.06-.452.012-.117-.048-.191-.131-.223-.251-.016-.112.032-.214.144-.306.113-.092.242-.166.386-.222.274-.088.573-.174.899-.258.326-.084.663-.158 1.013-.222.35-.064.708-.116 1.074-.156.366-.04.725-.06 1.08-.06.096 0 .174.038.234.114.06.076.09.142.09.198zm-2.099 4.09c-.112.025-.2.02-.265-.011-.065-.032-.105-.068-.12-.108-.065-.16-.107-.364-.127-.612-.02-.248-.029-.506-.025-.774s.019-.53.043-.786l.054-.515.018-.145c.016-.135.074-.211.175-.227.1-.016.195-.004.283.036.121.056.201.137.242.245.04.108.064.206.072.294-.024.152-.046.326-.066.522-.02.196-.035.396-.043.6-.008.204-.014.406-.018.606-.004.2.002.38.018.54.008.104-.014.182-.066.234-.052.052-.11.086-.175.102zm-.096-7.03c.33-.023.518.1.567.373.032.168.032.335 0 .503-.033.168-.093.324-.181.468-.089.144-.201.274-.338.39-.137.116-.29.21-.458.282-.234.096-.43.122-.591.078-.161-.044-.27-.086-.326-.126-.129-.104-.213-.234-.253-.39-.04-.156-.047-.32-.019-.492.029-.172.08-.34.157-.503.077-.164.163-.306.26-.426.088-.112.199-.222.331-.33.133-.108.28-.194.44-.258.065-.024.127-.044.188-.06.06-.016.118-.004.174.036.065.04.107.11.127.21.02.1-.006.182-.078.246zm-.133.217c-.096.04-.183.098-.26.174-.076.076-.15.17-.222.281-.065.112-.117.228-.157.348-.04.12-.053.224-.036.312.112-.016.219-.054.32-.114.1-.06.182-.13.246-.21.08-.112.135-.244.163-.395.028-.152.01-.284-.054-.396zm3.353 8.145c-.064-.056-.08-.128-.048-.216l.064-.16.032-.068c.08-.184.153-.378.218-.581.064-.204.116-.422.156-.654.016-.104.073-.194.17-.27.096-.076.224-.09.385-.042.064.032.103.078.115.138.012.06.018.126.018.198 0 .112-.014.242-.042.39-.029.148-.067.291-.115.431s-.105.27-.169.39c-.064.12-.124.212-.18.276-.097.104-.2.174-.308.21-.109.036-.207.022-.296-.042zm5.847-5.426l.139-.068.057-.024c.04-.016.093-.032.157-.048.024-.296.052-.576.084-.84l.052-.372c.018-.116.037-.224.057-.324l-.057.01-.052.002c-.032 0-.064.004-.096.012-.048.008-.11.008-.187 0s-.149-.024-.217-.048c-.069-.024-.125-.056-.17-.096-.043-.04-.065-.092-.065-.156.008-.104.072-.188.193-.252.12-.063.229-.111.325-.143.067-.018.155-.038.267-.058l.12-.02c.112-.02.23-.037.356-.054l.192-.024c.197-.024.39-.044.579-.06.189-.016.352-.024.488-.024.13 0 .266.024.41.072.145.048.23.116.254.204.008.055-.006.11-.042.161-.037.052-.08.098-.133.138-.052.04-.109.07-.169.09-.04.014-.078.023-.113.027l-.532.051c-.177.016-.358.036-.543.06-.04.184-.072.394-.096.63-.025.236-.049.482-.073.738.25-.064.5-.126.754-.186.253-.06.484-.106.694-.138.144-.016.26-.004.35.036.088.04.132.116.132.228 0 .032-.052.1-.157.204-.104.104-.241.18-.41.228l-.693.21c-.254.076-.497.154-.73.234-.016.248-.02.472-.012.671l.011.214c.007.093.015.166.025.218.016.08.052.144.109.192.056.048.132.052.229.012.33-.112.643-.262.94-.45.298-.188.575-.381.833-.581.177-.136.32-.24.428-.312.108-.072.199-.072.271 0 .04.04.047.118.018.234-.028.116-.078.23-.15.342-.137.215-.318.423-.543.623-.225.2-.462.378-.712.534-.249.156-.492.284-.73.384-.237.1-.432.158-.584.174-.193.024-.374-.012-.543-.108-.17-.096-.286-.24-.35-.432-.04-.136-.066-.336-.078-.6-.013-.264-.01-.555.006-.875-.089 0-.175-.016-.26-.048-.084-.032-.15-.092-.199-.18-.024-.04-.028-.108-.012-.204.013-.077.072-.146.178-.208zm4.466 4.478c-.048 0-.093-.014-.133-.042-.04-.027-.076-.061-.108-.101-.032-.04-.06-.088-.085-.144-.072-.144-.11-.35-.114-.618-.004-.268.008-.544.036-.828.028-.284.066-.55.114-.798.039-.198.078-.35.116-.457l.03-.07c.015-.04.043-.083.084-.127.04-.044.104-.062.193-.054.072.008.152.068.24.18.09.112.13.228.121.348-.008.024-.012.06-.012.108.113-.056.246-.114.398-.174.153-.06.31-.106.47-.138.162-.032.316-.044.465-.036.149.008.276.048.38.12.129.088.201.218.217.39.016.172.002.36-.042.564-.044.204-.109.412-.193.624l-.16.394-.075.176c.233-.072.476-.156.73-.252l.487-.192.23-.096c.161-.064.268-.072.32-.024.052.048.078.092.078.132 0 .088-.038.196-.114.324-.077.128-.183.228-.32.3-.233.12-.494.236-.784.348-.29.111-.55.191-.784.24-.297.063-.507.04-.627-.073-.12-.111-.149-.251-.085-.42.113-.28.226-.565.338-.857.113-.292.197-.562.253-.81.025-.12-.004-.176-.084-.168-.09.012-.199.034-.326.067l-.579.161c-.12.024-.213.028-.277.012l-.081.774-.043.547-.015.261-.006.206c.008.072-.016.126-.072.161-.056.036-.117.05-.181.042zm1.592-3.838c0 .08-.032.142-.096.186-.065.044-.13.066-.193.066-.137.016-.23-.028-.278-.132-.048-.104-.08-.2-.096-.288-.032-.224-.053-.496-.06-.816-.009-.32-.005-.648.011-.984.017-.336.043-.662.079-.977.036-.316.082-.582.139-.798.032-.112.098-.186.199-.222.1-.036.182-.046.247-.03.112.016.199.066.26.15.06.084.082.166.065.246-.03.174-.058.371-.083.592l-.025.23c-.032.315-.06.641-.085.977l-.033.498-.027.486c-.016.32-.024.592-.024.816zm7.165-.732c-.065.032-.13.06-.2.084l-.198.072-.27.111-.514.219c-.25.108-.467.21-.652.306-.112.064-.233.088-.362.072-.128 0-.2-.068-.217-.204-.016-.072.018-.172.103-.3.084-.128.207-.236.368-.324.209-.12.438-.238.687-.354.25-.116.507-.226.772-.33l.223-.078c.077-.028.151-.054.224-.078l-.073-1.907c0-.28.1-.42.302-.42.064 0 .152.032.265.096.113.064.177.18.193.348l.033.435c.01.153.02.316.027.488.016.344.03.694.043 1.05.012.356.018.702.018 1.038l-.003.474c-.002.148-.005.286-.01.413-.007.08-.048.156-.12.228-.072.072-.153.108-.241.108-.097 0-.173-.046-.228-.138l-.038-.078c-.032-.056-.054-.116-.066-.18l-.014-.09-.052-1.061zm-3.764-3.695l-.13.24-.069.132c-.068.136-.13.276-.187.42-.056.152-.098.302-.126.45-.028.148-.034.29-.018.425.273 0 .506-.078.7-.233.192-.156.321-.338.385-.546.024-.088.01-.154-.042-.198-.052-.044-.135-.046-.247-.006-.129.04-.221.028-.278-.036-.056-.064-.088-.124-.096-.18-.008-.128.056-.24.193-.336.153-.104.358-.148.615-.132.113.008.217.042.314.102.096.06.164.15.205.27.064.184.076.374.036.57-.04.196-.093.358-.157.486-.129.247-.283.445-.464.593-.181.148-.368.254-.561.318-.193.072-.376.104-.549.096-.173-.008-.312-.044-.416-.108-.233-.144-.378-.334-.434-.57-.057-.236-.057-.477 0-.725.048-.248.132-.488.253-.72.12-.232.237-.42.35-.564.064-.08.147-.168.247-.264s.215-.124.344-.084c.145.048.219.138.223.27.004.132-.026.242-.09.33zm.965 3.695c-.042.32-.089.63-.139.933l-.078.446c-.08.44-.136.876-.169 1.308-.024.136-.07.226-.138.27-.069.044-.135.066-.2.066-.064 0-.14-.038-.228-.114-.089-.076-.137-.198-.145-.366.016-.432.056-.856.12-1.272l.097-.596c.032-.19.064-.371.096-.543-.24.032-.512.094-.814.186-.301.092-.565.182-.79.27-.104.04-.22.072-.35.096-.128.024-.225-.024-.29-.144-.04-.088-.055-.178-.047-.27.008-.092.072-.178.193-.258.112-.064.271-.134.476-.21.205-.076.418-.148.64-.216.22-.068.438-.124.65-.168.214-.044.389-.062.525-.054.234.016.394.082.483.198.088.116.124.262.108.438zm3.631 2.903c-.038.23-.071.449-.102.658l-.043.308c-.04.3-.072.57-.096.81-.032.231-.077.38-.133.443-.048.048-.104.072-.169.072-.128 0-.223-.058-.283-.174-.06-.116-.099-.23-.115-.342-.056-.36-.056-.683 0-.971l.102-.55c.015-.087.03-.171.043-.254-.306 0-.597.032-.875.096-.277.064-.568.136-.874.216-.137.04-.263.024-.38-.048-.117-.072-.187-.16-.211-.264-.024-.088-.012-.182.036-.282.039-.08.116-.143.232-.19l.206-.065.274-.075c.153-.04.317-.08.494-.12.17-.032.346-.06.531-.084.185-.024.362-.036.53-.036.596.024.873.308.833.852zm4.56-3.97c.192-.449.387-.865.584-1.248.197-.384.376-.812.537-1.284-.16.04-.332.102-.513.186-.18.084-.351.166-.512.246-.129.056-.237.056-.326 0-.088-.056-.153-.124-.193-.204-.062-.137-.032-.254.089-.35l.068-.046c.185-.136.39-.25.615-.342.225-.092.479-.158.76-.198.105-.016.21-.004.314.036.104.04.197.096.277.168.08.072.14.158.18.258.041.1.05.206.025.318-.12.424-.285.864-.494 1.32l.585-.054c.229-.02.472-.038.73-.054.32-.008.637-.004.946.012.31.016.553.056.73.12.297.103.426.231.386.383-.016.064-.07.128-.163.192-.092.064-.207.088-.344.072-.41-.04-.818-.054-1.224-.042-.406.012-.802.026-1.188.042-.161 0-.294-.02-.398-.06-.105-.04-.193-.096-.266-.168l-.24.456c-.081.152-.166.3-.254.444-.072.112-.153.196-.241.252-.089.056-.193.052-.314-.012-.177-.096-.23-.244-.157-.444zm4.185 4.066c.08.064.134.15.163.258.028.108.042.222.042.342-.008.12-.03.238-.067.354-.036.116-.074.21-.114.282l.3-.16.212-.12.332-.2c.113-.072.22-.124.32-.156s.17.008.21.12c.025.072.007.186-.053.342-.06.156-.14.282-.236.378-.193.167-.426.34-.7.515-.28.184-.55.324-.807.42-.105.04-.205.04-.302 0-.096-.04-.177-.096-.241-.168-.064-.064-.107-.134-.127-.21-.02-.076-.01-.146.03-.21.105-.152.195-.31.272-.473.076-.164.134-.318.175-.462.024-.104.02-.186-.012-.246-.033-.06-.085-.09-.157-.09-.161 0-.332.03-.513.09-.18.06-.311.114-.392.162-.048.208-.084.418-.108.63-.024.211-.045.413-.06.605-.017.192-.105.28-.266.264-.113-.008-.217-.05-.314-.126-.096-.076-.144-.174-.144-.294 0-.288.024-.595.072-.923.024-.16.058-.316.103-.468.044-.152.098-.288.162-.408.04-.064.09-.132.151-.204.06-.072.159-.108.296-.108.064 0 .122.018.175.054.052.036.07.086.054.15.707-.2 1.222-.18 1.544.06zm-2.63-.96c-.136.016-.275.016-.416 0-.14-.016-.231-.08-.271-.192-.032-.088-.01-.18.066-.276.076-.096.191-.164.344-.204l.47-.12c.024-.335.055-.671.09-1.007.037-.336.087-.672.151-1.008.057-.264.218-.396.483-.396.201 0 .29.108.265.324-.04.248-.078.532-.114.852-.036.32-.067.66-.09 1.02l.096-.024c.032-.008.068-.02.108-.036l.544-.16.258-.08c.19-.06.354-.107.492-.14l.13-.028c.217-.056.39-.052.518.012.129.064.197.136.205.216.008.16-.076.28-.253.36l-.221.092c-.124.049-.27.102-.436.16-.278.095-.57.187-.875.275-.305.088-.599.166-.88.234l-.31.07c-.139.028-.257.047-.354.056zM3.253 25.57c-.016.152-.045.318-.085.498-.04.18-.088.361-.145.545-.056.184-.118.36-.186.528l-.187.444c.2-.104.386-.214.554-.33l.543-.378c.04-.032.085-.042.133-.03.048.012.08.026.096.042.049.04.07.096.067.168-.004.072-.022.144-.055.216-.032.072-.07.142-.114.21l-.08.117-.035.045c-.088.088-.187.176-.295.264-.109.088-.221.172-.338.252-.117.08-.233.15-.35.21-.116.06-.223.106-.32.138-.265.088-.47.088-.615 0-.176-.096-.209-.292-.096-.588.137-.36.28-.728.428-1.104.149-.376.255-.723.32-1.043l-.1.02-.342.09-.409.118-.193.06c-.124.04-.219.072-.283.096-.064.024-.125.028-.181.012-.016.335-.016.685 0 1.05.012.272.033.569.063.889l.034.328c.016.056-.004.098-.06.126-.057.028-.105.042-.146.042-.072 0-.136-.026-.193-.078-.056-.052-.104-.112-.144-.18-.04-.068-.075-.138-.103-.21-.019-.048-.033-.09-.043-.128l-.011-.052c-.048-.224-.082-.458-.103-.702-.02-.244-.03-.48-.03-.708 0-.227.01-.437.03-.63l.032-.257c.011-.076.023-.142.035-.198.024-.104.066-.192.126-.264.06-.072.135-.1.224-.084.193.048.301.164.325.348.016 0 .032-.008.048-.024.073-.04.181-.084.326-.132.145-.048.298-.094.458-.138.161-.044.322-.076.483-.096.16-.02.29-.026.386-.018.16.016.293.072.398.168.104.096.149.212.133.348zm1.688 5.686c-.08.168-.179.264-.295.288-.117.024-.195.028-.235.012-.113-.056-.175-.152-.187-.288-.012-.136.006-.272.054-.408.104-.272.237-.552.398-.84.16-.288.346-.56.555-.815-.177.088-.362.186-.555.294-.193.108-.402.241-.627.401-.129.088-.258.112-.386.072-.129-.04-.213-.096-.254-.168-.032-.064-.042-.143-.03-.24.012-.095.075-.191.187-.287.258-.216.527-.402.808-.558.282-.156.612-.282.99-.378.265-.064.482-.052.65.036.105.056.182.15.23.282.048.132.032.274-.048.426l-.332.516c-.1.151-.195.3-.283.443.12 0 .225.022.313.066.089.044.173.098.253.162.13.112.26.246.392.402.133.156.258.324.374.504.117.18.224.364.32.552.097.188.173.37.23.546.015.056.011.118-.013.186s-.064.118-.12.15c-.073.04-.173.038-.302-.006s-.237-.146-.326-.306l-.313-.534c-.097-.164-.195-.322-.296-.474-.1-.152-.207-.302-.32-.45-.112-.148-.24-.302-.385-.462-.08.128-.155.262-.224.402-.068.14-.142.298-.223.474zm.893-3.503c-.113 0-.225-.064-.338-.192-.112-.128-.177-.264-.193-.408-.04-.304-.072-.596-.096-.875-.024-.28-.043-.56-.055-.84-.012-.28-.016-.57-.012-.87.004-.3.014-.622.03-.966.008-.112.047-.208.115-.288.068-.08.167-.104.296-.072.088.024.174.086.259.186.084.1.127.214.127.342-.009.224-.01.462-.007.714.005.252.015.506.03.762.21-.088.423-.168.64-.24.217-.072.426-.12.627-.144.185-.016.346.012.483.084.136.072.205.148.205.228 0 .04-.022.076-.067.108-.044.032-.098.064-.163.096-.064.032-.134.062-.21.09-.077.028-.147.05-.212.066-.2.064-.406.136-.615.216-.209.08-.43.168-.663.264l.032.482.052.639.012.114c.016.136.012.254-.012.354-.024.1-.112.15-.265.15zm6.175 1.332c.113 0 .216.018.308.054.092.036.16.086.205.15.044.064.058.14.042.228s-.072.18-.169.275c-.128.136-.253.27-.373.402-.121.132-.238.278-.35.438.281-.016.518-.004.711.036.113.024.21.064.29.12.08.056.139.122.175.198.036.076.052.154.048.234-.004.08-.03.152-.078.216l-.78 1.027-.15.203c-.096.132-.172.25-.228.354.297-.104.597-.232.898-.384l.43-.213c.136-.066.264-.127.384-.183.097-.048.185-.072.266-.072.08 0 .153.008.217.024s.106.082.127.198c.02.116-.019.214-.115.294-.338.256-.73.495-1.176.72-.446.223-.895.415-1.345.575-.241.056-.434.004-.579-.156-.056-.064-.096-.152-.12-.264-.025-.112-.017-.212.024-.3.185-.36.4-.703.645-1.031.245-.328.496-.644.754-.948-.134.005-.263.016-.386.032l-.497.081-.13.019c-.161.024-.284-.004-.368-.084-.085-.08-.079-.216.018-.408.088-.184.21-.374.368-.57.156-.196.311-.37.464-.522-.123.027-.252.062-.386.104l-.205.07c-.21.076-.386.146-.53.21-.073.032-.141.044-.206.036-.064-.008-.12-.028-.169-.06-.048-.032-.088-.07-.12-.114s-.052-.086-.06-.126c-.017-.088.005-.166.066-.233.06-.068.134-.122.223-.162l.157-.07.47-.182c.04-.208.073-.424.097-.648.024-.224.044-.44.06-.648-.233.048-.468.102-.706.162l-.73.186c-.184.048-.317.05-.397.006-.08-.044-.133-.122-.157-.234-.024-.112.014-.204.114-.276.1-.072.191-.124.272-.156.498-.168 1-.306 1.507-.414.507-.108.977-.186 1.412-.234.072-.008.156-.012.253-.012.096 0 .189.006.277.018.089.012.17.034.242.066.072.032.116.08.132.144.016.048.016.096 0 .144-.016.048-.048.096-.096.144-.048.048-.105.088-.169.12-.064.032-.137.052-.217.06-.33.032-.664.08-1.001.144-.008.208-.022.418-.042.63-.02.212-.047.422-.079.63l.118-.02.34-.028zm-3.232-2.052c-.064-.048-.107-.106-.127-.174-.02-.068.006-.158.079-.27l.42-.514.165-.2c.229-.275.436-.577.62-.905-.248-.032-.47-.014-.663.054l-.37.133-.172.065c-.137.064-.254.074-.35.03-.097-.044-.161-.11-.193-.198-.032-.096-.004-.194.084-.294.089-.1.173-.17.254-.21.257-.144.534-.24.832-.288.297-.048.579-.04.844.024.185.064.324.154.416.27.093.116.11.278.055.486-.033.12-.089.26-.17.42.266-.016.533-.022.803-.018s.512.014.73.03c.096.008.19.022.283.042.092.02.177.046.253.078.077.032.135.072.175.12.04.048.056.104.048.168-.016.08-.082.136-.199.168-.116.032-.25.044-.404.036-.305-.016-.649-.012-1.03.012-.383.024-.763.056-1.14.096-.097.12-.202.241-.314.365-.113.124-.238.25-.374.378-.089.088-.191.136-.308.144-.116.008-.199-.008-.247-.048zm1.4-3.095l-.366-1.009-.105-.298c-.033-.088-.024-.164.024-.228s.116-.108.205-.132c.088-.024.173-.012.253.036.08.048.14.104.181.168.04.064.082.154.127.27.044.116.084.236.12.36l.052.182.045.177c.028.116.046.202.054.258.016.088.012.168-.012.24-.024.072-.064.12-.12.144-.105.048-.2.054-.284.018-.084-.036-.143-.098-.175-.186zm10.987 6.67c.132-.016.23-.011.302.012.072.024.14.056.205.096.072.048.125.106.157.174.032.068.052.134.06.198s.006.126-.006.186l-.03.138c-.113.288-.256.552-.428.792-.173.24-.364.464-.573.672.313-.088.605-.182.874-.282l.4-.155.39-.163c.145-.064.27-.102.374-.114.105-.012.169.03.193.126.024.088.014.174-.03.258-.044.084-.099.158-.163.222-.072.064-.145.12-.217.168l-.169.108c-.322.16-.675.297-1.061.413-.386.116-.728.206-1.026.27-.072.016-.15.03-.235.042-.084.012-.163.014-.235.006-.072-.016-.137-.046-.193-.09-.056-.044-.1-.11-.133-.198-.048-.144-.02-.28.085-.407.064-.072.147-.156.247-.252l.17-.177c.064-.07.134-.151.21-.243.153-.192.302-.39.446-.594.145-.204.258-.394.338-.57-.16.008-.328.04-.5.096-.173.056-.34.104-.501.144-.08.016-.16.012-.241-.012-.08-.024-.141-.076-.181-.156-.032-.072-.044-.14-.036-.204.008-.064.056-.128.144-.192l.335-.242c.204-.153.372-.288.504-.406.197-.176.351-.332.464-.468-.273.04-.533.104-.778.192-.245.088-.484.176-.718.264-.112.04-.237.06-.374.06-.136 0-.229-.056-.277-.168-.048-.12-.032-.228.048-.324s.17-.171.266-.227c.096-.056.195-.104.295-.144l.308-.12v-.21c0-.06-.002-.12-.006-.18l-.018-.204c-.008-.076-.017-.174-.025-.294l-.066-.48c-.02-.128-.05-.252-.09-.372l-1.122.36c-.113.04-.237.026-.374-.042s-.23-.178-.277-.33c-.04-.136.048-.244.265-.324l.393-.127.457-.143c.326-.1.67-.198 1.032-.294.361-.088.725-.162 1.091-.222s.71-.09 1.031-.09c.049 0 .119.036.211.108.093.072.131.16.115.264-.016.072-.05.126-.102.162-.053.036-.107.058-.163.066-.346.056-.686.122-1.02.198-.333.076-.669.162-1.007.258.073.056.141.13.205.222.065.092.117.218.157.378.032.144.058.274.079.39.02.116.034.274.042.474v.216c.273-.048.518-.072.736-.072.08 0 .168.012.265.036.096.024.18.064.253.12.065.056.11.126.139.21.028.084.014.186-.042.305-.04.072-.099.154-.175.246l-.12.134-.127.124c-.193.192-.342.32-.447.384zm-3.69-4.846c.192-.448.387-.864.584-1.248.197-.384.376-.812.537-1.284-.16.04-.332.102-.512.186-.181.084-.352.166-.513.246-.129.056-.237.056-.326 0-.088-.056-.153-.124-.193-.204-.062-.137-.032-.253.089-.35l.068-.046c.185-.135.39-.25.615-.341.225-.092.479-.158.76-.198.105-.016.21-.004.314.036.104.04.197.096.277.168.08.072.14.158.181.258.04.1.048.205.024.317-.12.424-.285.864-.494 1.32l.585-.054c.229-.02.472-.038.73-.054.321-.008.637-.004.946.012.31.016.553.056.73.12.297.104.426.232.386.384-.016.064-.07.128-.163.192-.092.064-.207.088-.344.072-.41-.04-.818-.054-1.224-.042-.406.012-.802.026-1.188.042-.16 0-.294-.02-.398-.06-.105-.04-.193-.096-.265-.168l-.242.456c-.08.152-.165.3-.253.444-.072.112-.153.196-.241.252-.089.056-.193.052-.314-.012-.177-.096-.229-.244-.157-.444zm14.003 3.215c0 .184-.018.35-.054.498-.036.148-.119.23-.247.245-.137.016-.246-.015-.326-.095-.08-.08-.12-.184-.12-.312-.009-.712-.029-1.398-.061-2.058-.022-.44-.05-.872-.086-1.295l-.059-.63c-.024-.192.002-.322.079-.39.076-.068.154-.106.235-.114.104-.008.195.044.271.156.077.112.127.236.15.372.033.2.061.39.085.57.024.18.045.362.06.545.103-.026.21-.052.322-.077l.437-.087.26-.045c.174-.028.337-.05.49-.066.152-.016.289-.024.41-.024.209.016.325.088.35.215.015.056.003.134-.037.234s-.104.158-.193.174l-1.104.234c-.325.068-.62.142-.886.222.016.296.024.588.024.876v.852zm-3.196-2.352c0 .024-.008.06-.024.108.016 0 .056.008.12.024.225.096.378.246.459.45.08.204.108.406.084.606-.024.192-.084.38-.181.564-.096.184-.213.348-.35.492-.136.144-.285.26-.446.348-.16.088-.318.132-.47.132-.17 0-.306-.04-.41-.12-.105-.08-.183-.18-.236-.3-.052-.12-.084-.256-.096-.408-.012-.152-.006-.3.018-.444.032-.2.104-.422.217-.666.084-.183.173-.342.267-.478l.095-.128c.032-.048.076-.102.133-.162.056-.06.116-.116.18-.168.065-.052.133-.094.205-.125.073-.032.141-.04.206-.024.088.016.15.057.186.125.037.068.05.126.043.174zm-.326.636c-.04.064-.086.146-.139.246-.052.1-.102.206-.15.318-.049.112-.089.228-.121.348-.032.12-.048.228-.048.324.08-.024.169-.064.265-.12.097-.056.189-.126.277-.21.089-.084.165-.182.23-.294.064-.112.108-.236.132-.372.016-.104-.006-.194-.066-.27-.06-.076-.123-.138-.187-.186l-.036-.036c-.048.088-.1.172-.157.252zm7.25-1.343l.705-.156c.245-.056.49-.104.735-.144.246-.04.491-.068.736-.084.246-.016.48-.004.706.036.088.024.15.066.187.126.036.06.042.126.018.198-.024.08-.095.136-.211.168-.117.032-.235.06-.356.084l-.437.077-.472.09-.513.11-.785.19c-.25.064-.447.066-.591.006-.145-.06-.238-.11-.278-.15-.08-.08-.134-.165-.163-.257-.028-.092-.05-.194-.066-.306-.016-.136-.022-.288-.018-.456.004-.168.018-.336.042-.504.024-.168.053-.326.085-.474.032-.148.068-.27.108-.366.024-.072.073-.12.145-.144.072-.024.153-.02.241.012.097.04.175.118.235.234.06.116.083.206.067.27-.057.232-.097.472-.12.72-.025.248-.025.488 0 .72zm-.568 2.65c-.153.009-.301-.011-.446-.06-.145-.047-.233-.151-.265-.311 0-.104.056-.19.168-.258.113-.068.262-.118.447-.15.715-.112 1.37-.192 1.966-.24.595-.048 1.182-.048 1.76 0 .154.04.23.116.23.228 0 .088-.028.162-.084.222-.045.048-.124.082-.236.102l-.904.12-1.333.165-.296.039c-.301.04-.637.088-1.007.144zm1.303.229c.032 0 .074.012.127.036.052.024.102.06.15.108.049.048.089.102.12.162.033.06.05.126.05.198-.009.088-.02.184-.037.288l-.081.478-.043.35-.009.083c.45-.04.883-.118 1.297-.234l.405-.115.759-.227c.064-.024.133-.016.205.024.072.04.129.088.169.144.048.072.052.152.012.24-.04.088-.085.144-.133.168-.193.112-.408.216-.645.312-.237.096-.483.178-.736.246s-.504.126-.754.174c-.249.048-.478.08-.687.096-.177.016-.316.002-.416-.042-.1-.044-.175-.102-.224-.174-.048-.072-.078-.156-.09-.252-.008-.064-.01-.128-.005-.192l.12-.882c.032-.243.08-.49.144-.737.016-.088.053-.152.109-.192.056-.04.12-.06.193-.06zm7.695-2.747c-.209.024-.392.006-.549-.054-.156-.06-.267-.166-.331-.318-.08-.176-.135-.358-.163-.546-.028-.188-.038-.368-.03-.54.008-.172.024-.328.048-.468s.052-.254.084-.342c.04-.112.093-.21.157-.294.065-.084.145-.122.241-.114.049.008.09.028.127.06.036.032.066.072.09.12.025.048.043.096.055.144.012.048.018.088.018.12-.016.272-.024.534-.024.786s.008.482.024.69l.67-.156.59-.144c.19-.048.376-.104.561-.168.124-.043.252-.09.386-.144l.205-.084c.29-.136.475-.116.555.06.056.136.032.252-.072.348-.105.096-.233.192-.386.288-.161.096-.334.188-.519.276-.04.16-.076.332-.108.516-.033.184-.059.37-.079.557-.02.188-.034.368-.042.54-.008.172-.008.322 0 .45l.193-.04.458-.116.178-.05.172-.052c.113-.036.217-.066.314-.09.185-.048.327-.064.428-.048.1.016.159.048.175.096.016.064.012.126-.012.186s-.06.116-.109.168c-.048.052-.102.098-.163.138-.06.04-.114.072-.162.096-.153.072-.342.146-.567.222-.226.076-.467.148-.724.216-.257.068-.515.128-.772.18l-.483.09-.217.036c-.128.016-.245.008-.35-.024-.104-.032-.172-.124-.204-.276-.017-.064-.004-.134.036-.21.04-.076.104-.126.193-.15l.115-.024.542-.138c.076-.02.139-.034.187-.042 0-.44.034-.814.103-1.122.068-.308.15-.597.247-.87-.185.057-.372.107-.561.15-.189.045-.364.075-.525.09zm1.544 3.467c.233-.136.475-.244.724-.324.25-.08.49-.112.724-.096.281.016.46.112.536.288.077.176.083.363.018.563l-.084.276c-.032.1-.068.208-.109.324-.08.232-.176.424-.29.576l.424-.128c.067-.021.13-.043.192-.064l.193-.07.434-.17c.129-.056.227-.06.296-.012.068.048.106.112.114.192.008.056-.01.136-.054.24-.044.104-.135.196-.271.276-.225.12-.46.228-.706.324-.245.096-.508.176-.79.24-.297.064-.523.048-.675-.048-.089-.056-.151-.142-.187-.258-.037-.116-.022-.23.042-.342.072-.104.149-.224.229-.36.08-.136.155-.272.223-.408l.187-.384.133-.3c-.225.032-.418.076-.58.132l-.305.112-.14.056c-.097.04-.197.032-.302-.024-.105-.056-.165-.132-.18-.228-.017-.088-.003-.164.041-.227.045-.064.099-.116.163-.156zm-.47 2.47c-.04.017-.089.02-.145.013-.056-.008-.11-.024-.163-.048-.052-.024-.098-.058-.139-.102-.04-.044-.064-.094-.072-.15-.056-.416-.092-.808-.108-1.176-.017-.368-.004-.712.036-1.031.016-.16.068-.256.157-.288.088-.032.164-.04.229-.024.128.016.223.072.283.168.045.072.07.144.071.216l-.005.072c-.016.303-.024.621-.024.953 0 .222.01.453.027.693l.034.369c.016.096.004.172-.037.228-.04.056-.088.092-.144.108zm5.078-6.55c.008.04.008.103 0 .187s-.032.162-.073.234c.057-.016.123-.024.2-.024.076 0 .154.014.235.042.08.028.154.074.223.138.068.064.122.148.163.252.104.28.15.54.138.78-.012.24-.058.467-.138.683-.049.144-.125.308-.23.492-.104.184-.23.352-.38.504-.148.152-.311.27-.488.354-.177.084-.362.098-.555.042-.129-.032-.237-.09-.326-.174-.088-.084-.158-.176-.21-.276-.053-.1-.093-.202-.121-.306-.028-.104-.042-.196-.042-.276-.025-.568.072-1.092.289-1.572.217-.48.495-.923.832-1.331.049-.056.099-.084.151-.084.052 0 .103.016.15.048.05.032.09.076.121.132.033.056.053.108.06.156zm-.7 2.94c.137-.056.274-.184.41-.384.137-.2.237-.388.302-.564.08-.232.108-.474.084-.726-.024-.252-.112-.473-.265-.665-.113.184-.22.381-.32.593-.1.212-.175.434-.223.666-.04.16-.06.346-.06.558 0 .212.024.386.072.522zm4.137.492c-.096-.04-.167-.1-.21-.18-.045-.08-.075-.152-.091-.216-.02-.18-.03-.408-.031-.687v-.219c.005-.38.015-.786.03-1.217.017-.432.043-.846.08-1.242.035-.396.078-.714.126-.954.064-.232.169-.34.313-.324.113.016.207.09.284.222.076.132.106.258.09.378-.032.205-.059.447-.08.726l-.05.778-.026.571c-.017.384-.029.756-.037 1.116l-.005.403c-.001.187 0 .353.005.497l-.03.144c-.012.048-.034.092-.066.132-.064.096-.165.12-.302.072zm-.904.144c-.049.288-.089.566-.12.833-.033.268-.041.538-.025.81.394-.112.768-.24 1.122-.384.354-.144.7-.316 1.037-.516.12-.071.225-.131.314-.18.088-.047.152-.027.193.06.04.104.02.244-.06.42-.081.176-.206.324-.375.444-.265.176-.595.356-.989.54-.394.184-.788.32-1.182.408l-.217.03c-.096.012-.193.002-.29-.03-.096-.032-.18-.092-.253-.18-.072-.088-.108-.228-.108-.42 0-.28.02-.59.06-.93.04-.34.117-.661.23-.965.023-.064.072-.132.144-.204.072-.072.153-.108.241-.108.145 0 .231.036.26.108.028.072.034.16.018.264zm7.804-4.487c-.016.336-.022.664-.018.984.004.32.014.648.03.983.096-.024.217-.048.362-.072.144-.024.297-.043.458-.06.16-.015.322-.027.482-.035.161-.008.31-.008.447 0 .16.016.3.055.416.12.116.063.175.143.175.24 0 .095-.075.167-.223.215-.15.048-.288.076-.417.084l-.233.022-.134.014c-.141.016-.288.038-.44.066-.154.028-.304.06-.453.096-.149.036-.28.074-.392.114.024.248.052.494.084.738.033.244.069.49.109.738.008.064.004.13-.012.198s-.04.13-.073.186c-.032.056-.068.104-.108.144-.04.04-.076.064-.109.072-.064.016-.118.012-.162-.012-.045-.024-.083-.056-.115-.096s-.058-.086-.078-.138l-.026-.074-.017-.064c-.064-.248-.124-.548-.18-.9-.057-.352-.1-.732-.127-1.14-.028-.408-.044-.83-.048-1.265-.005-.436.014-.866.054-1.29.024-.232.116-.368.277-.408.057-.008.115.004.175.036.06.032.113.078.157.138.044.06.078.124.102.192.025.068.037.126.037.174zm-2.352 1.999l-.067.307-.05.258-.028.153c-.048.268-.09.56-.127.876-.036.316-.062.628-.078.936-.016.308-.012.566.012.773.016.168-.028.276-.133.324-.104.048-.193.064-.265.048-.065-.008-.119-.034-.163-.078-.044-.044-.078-.094-.103-.15-.024-.056-.042-.112-.054-.168l-.03-.155c-.013-.116-.018-.27-.015-.461l.003-.151c.008-.264.026-.548.054-.852.028-.304.065-.6.109-.888.044-.288.094-.528.15-.72-.104.024-.229.06-.373.108-.145.048-.292.102-.44.162l-.22.092-.547.25c-.096.048-.188.036-.277-.036-.088-.072-.149-.14-.18-.204-.025-.048-.039-.112-.043-.192-.003-.064.03-.122.102-.176l.06-.04c.081-.048.198-.112.35-.191.153-.08.32-.16.501-.24.181-.08.368-.148.561-.204.193-.056.37-.084.53-.084.298 0 .511.078.64.234.107.13.147.286.12.469zm7.212-2.599l-.11.525-.113.519c-.076.344-.146.688-.21 1.032-.065.344-.113.687-.145 1.031-.033.344-.037.688-.013 1.032.017.088.002.172-.042.252-.044.08-.094.132-.15.156-.177.064-.306.02-.386-.132-.097-.408-.147-.812-.151-1.212-.004-.4.024-.795.084-1.187.06-.392.14-.782.241-1.17.1-.388.203-.774.308-1.158.04-.16.105-.248.193-.264.088-.016.173-.008.253.024.12.04.197.12.23.24.032.12.036.224.011.312zm-.482 6.454c0 .088-.01.206-.03.354-.02.148-.052.286-.097.414-.044.128-.104.232-.18.312-.077.08-.171.096-.284.048-.064-.04-.129-.116-.193-.228s-.092-.216-.084-.312c.016-.192.056-.38.12-.564.065-.184.149-.296.253-.336.049-.016.103-.016.163 0 .06.016.115.042.163.078s.089.076.12.12c.033.044.049.082.049.114z"/>
</svg>
