<svg xmlns="http://www.w3.org/2000/svg" width="18" height="21" viewBox="0 0 18 21">
    <g fill="none">
        <path fill="#9B9B9B" d="M6.548 13.094c.594.503 1.33.79 2.162.79 1.877 0 3.397-1.556 3.397-3.447V6.99l-5.56 6.104zM12.107 3.501c0-.979-.38-1.836-.998-2.473C10.492.392 9.66 0 8.71 0 6.834 0 5.313 1.567 5.313 3.501v7.2c0 .538.12 1.052.357 1.517l6.438-6.146v-2.57z"/>
        <path fill="#9B9B9B" d="M4.547 15.536c1.01.992 2.244 1.597 3.59 1.743v1.887h-2.11c-.38 0-.672.315-.672.726 0 .412.292.726.673.726h5.563c.381 0 .673-.314.673-.726 0-.411-.292-.726-.673-.726H9.482V17.28c3.186-.388 5.676-3.292 5.676-6.825V7.6c0-.412-.292-.726-.673-.726-.381 0-.673.314-.673.726v2.855c0 2.977-2.243 5.397-5.002 5.397-1.234 0-2.4-.484-3.32-1.355l-.471.508-.472.532zM4.547 13.457c-.55-.882-.837-1.885-.837-2.962V7.607c0-.416-.311-.734-.718-.734s-.718.318-.718.734v2.888c0 1.444.43 2.864 1.244 4.014l.455-.465.574-.587z"/>
        <path fill="#F06292" d="M17.759 1.01c-.166-.17-.38-.267-.617-.243-.214 0-.404.097-.546.242L5.866 11.926 4.49 13.354l-.593.605-.451.436L.24 17.663c-.166.17-.261.387-.237.63 0 .217.095.41.237.556.166.17.38.242.593.242.214 0 .428-.097.594-.242l3.157-3.171 1.02-1.04 1.33-1.405L17.759 2.195c.166-.169.261-.387.237-.629 0-.194-.095-.411-.237-.557z"/>
    </g>
</svg>
