<svg xmlns="http://www.w3.org/2000/svg" width="93" height="93" viewBox="0 0 93 93">
    <g fill="none" opacity=".351">
        <path fill="#FFD05B" d="M87.388 73.299c5.535 5.535 6.71 13.083 2.851 16.94-3.857 3.858-11.405 2.684-16.94-2.851-5.536-5.535-33.211-39.417-29.186-43.275 3.858-3.858 37.74 23.65 43.275 29.186z"/>
        <path fill="#F9B54C" d="M58.035 44.952L44.952 58.035l4.193 4.193c1.174 1.174 3.187 1.174 4.361 0l8.722-8.722c1.174-1.174 1.174-3.187 0-4.36l-4.193-4.194z"/>
        <circle cx="31.366" cy="31.366" r="31.366" fill="#CACACA"/>
        <circle cx="31.366" cy="31.366" r="24.153" fill="#FFF"/>
        <ellipse cx="31.366" cy="16.102" fill="#E6E9EE" rx="7.883" ry="3.858"/>
    </g>
</svg>
