<svg xmlns="http://www.w3.org/2000/svg" width="35" height="35" viewBox="0 0 35 35">
    <defs>
        <filter id="prefix__a" width="184.2%" height="184.2%" x="-42.1%" y="-42.1%" filterUnits="objectBoundingBox">
            <feOffset dy="2" in="SourceAlpha" result="shadowOffsetOuter1"/>
            <feGaussianBlur in="shadowOffsetOuter1" result="shadowBlurOuter1" stdDeviation="1"/>
            <feColorMatrix in="shadowBlurOuter1" result="shadowMatrixOuter1" values="0 0 0 0 0 0 0 0 0 0 0 0 0 0 0 0 0 0 0.322088068 0"/>
            <feMerge>
                <feMergeNode in="shadowMatrixOuter1"/>
                <feMergeNode in="SourceGraphic"/>
            </feMerge>
        </filter>
    </defs>
    <g fill="none" fill-rule="evenodd">
        <circle cx="17.5" cy="17.5" r="17.5" fill="#9B9B9B"/>
        <g fill="#FFF" fill-rule="nonzero" filter="url(#prefix__a)" transform="translate(8 8)">
            <path d="M6.748 9.657c-1.062 0-1.924.862-1.924 1.925v4.813c0 1.062.862 1.924 1.924 1.924 1.063 0 1.925-.862 1.925-1.924v-4.813c-.001-1.063-.863-1.925-1.925-1.925zM.013 11.582c0 1.063.863 1.925 1.926 1.925s1.926-.862 1.926-1.925V9.656H1.94 1.94c-1.063 0-1.926.862-1.926 1.926zM6.75 0h-.002C5.685 0 4.823.863 4.823 1.926s.862 1.926 1.925 1.926h1.925V1.926v-.004C8.672.86 7.812 0 6.75 0zM1.926 8.68h4.822c1.064 0 1.926-.863 1.926-1.926 0-1.064-.862-1.926-1.926-1.926H1.926C.863 4.828 0 5.69 0 6.754 0 7.817.863 8.68 1.926 8.68zM16.377 4.827c-1.062 0-1.922.86-1.922 1.922v1.93h1.924c1.063 0 1.926-.863 1.926-1.926s-.863-1.926-1.926-1.926h-.002zM9.647 1.926v4.828c0 1.062.862 1.924 1.925 1.924 1.062 0 1.924-.862 1.924-1.924V1.926c0-1.063-.862-1.924-1.924-1.924-1.063 0-1.925.861-1.925 1.924zM13.495 16.393c0-1.062-.862-1.924-1.924-1.924H9.647v1.926c0 1.062.861 1.923 1.924 1.923 1.062 0 1.924-.862 1.924-1.925zM16.393 9.656h-4.822c-1.063 0-1.926.862-1.926 1.926 0 1.063.863 1.925 1.926 1.925h4.822c1.064 0 1.926-.862 1.926-1.925 0-1.064-.862-1.926-1.926-1.926z"/>
        </g>
    </g>
</svg>
