<svg xmlns="http://www.w3.org/2000/svg" xmlns:xlink="http://www.w3.org/1999/xlink" width="35" height="35" viewBox="0 0 35 35">
    <defs>
        <filter id="prefix__a" width="138.2%" height="139.5%" x="-19.1%" y="-9.9%" filterUnits="objectBoundingBox">
            <feOffset dy="2" in="SourceAlpha" result="shadowOffsetOuter1"/>
            <feGaussianBlur in="shadowOffsetOuter1" result="shadowBlurOuter1" stdDeviation="1"/>
            <feColorMatrix in="shadowBlurOuter1" values="0 0 0 0 0 0 0 0 0 0 0 0 0 0 0 0 0 0 0.322088068 0"/>
        </filter>
        <path id="prefix__b" d="M17.477 8C11.691 8 7 11.878 7 16.662c0 3.093 1.961 5.807 4.911 7.339-1.465 5.298-2.326 5.643 3.706 1.186.604.09 1.225.136 1.86.136 5.786 0 10.477-3.878 10.477-8.662 0-4.783-4.69-8.661-10.477-8.661z"/>
    </defs>
    <g fill="none" fill-rule="evenodd">
        <circle cx="17.5" cy="17.5" r="17.5" fill="#9B9B9B"/>
        <g fill-rule="nonzero">
            <use fill="#000" filter="url(#prefix__a)" xlink:href="#prefix__b"/>
            <use fill="#FFF" xlink:href="#prefix__b"/>
        </g>
        <g fill="#9B9B9B" fill-rule="nonzero">
            <path d="M6.523.648C6.246-.175 5.188-.176 4.912.647c-.86 2.812-2.01 4.548-1.303 4.89.942.45.962-.563 1.187-1.014h1.843c.224.449.246 1.463 1.187 1.014.71-.342-.427-2.023-1.303-4.89zM5.113 3.4l.605-1.798L6.32 3.4H5.114zM2.14 5.633c-1.045 0-.427-1.527-.603-4.37C1.162 1.195 0 1.537 0 .643c0-.342.266-.62.593-.62C2.79.189 4.28-.41 4.28.643c0 .91-1.113.544-1.537.62-.174 2.834.441 4.37-.603 4.37zM8.941 5.54c-1.012 0-.396-1.442-.578-4.885 0-.839 1.233-.838 1.233 0v3.723c.584.082 1.864-.304 1.864.58 0 .929-1.376.464-2.519.582zM14.53 5.357l-1.417-1.97-.21.22V4.99c0 .35-.27.634-.605.634-1.05 0-.42-1.596-.604-4.969 0-.35.27-.634.604-.634.913 0 .519 1.362.605 1.996 1.71-1.726 1.67-1.91 2.022-1.91.485 0 .783.637.46.976l-1.378 1.444 1.488 2.067c.485.668-.485 1.434-.964.763z" transform="translate(9.543 14.052)"/>
        </g>
    </g>
</svg>
