<svg xmlns="http://www.w3.org/2000/svg" width="35" height="35" viewBox="0 0 35 35">
    <defs>
        <filter id="prefix__a" width="188.9%" height="188.9%" x="-44.4%" y="-44.4%" filterUnits="objectBoundingBox">
            <feOffset dy="2" in="SourceAlpha" result="shadowOffsetOuter1"/>
            <feGaussianBlur in="shadowOffsetOuter1" result="shadowBlurOuter1" stdDeviation="1"/>
            <feColorMatrix in="shadowBlurOuter1" result="shadowMatrixOuter1" values="0 0 0 0 0 0 0 0 0 0 0 0 0 0 0 0 0 0 0.322088068 0"/>
            <feMerge>
                <feMergeNode in="shadowMatrixOuter1"/>
                <feMergeNode in="SourceGraphic"/>
            </feMerge>
        </filter>
    </defs>
    <g fill="none" fill-rule="evenodd">
        <circle cx="17.5" cy="17.5" r="17.5" fill="#9B9B9B"/>
        <g fill="#FFF" fill-rule="nonzero" filter="url(#prefix__a)" transform="translate(9 9)">
            <path d="M13.46 0c-1.13 0-2.193.44-2.993 1.24L7.17 4.538c.252-.036.503-.074.76-.074.711 0 1.407.138 2.047.394l2.054-2.054c.382-.382.89-.592 1.43-.592 1.115 0 2.022.907 2.022 2.022 0 .54-.21 1.048-.593 1.43l-3.696 3.697c-.765.763-2.096.764-2.86 0L6.77 10.926c.8.799 1.863 1.24 2.993 1.24s2.194-.442 2.994-1.241l3.696-3.697c.8-.8 1.24-1.863 1.24-2.994C17.695 1.9 15.797 0 13.462 0z"/>
            <path d="M7.698 12.856l-2.034 2.035c-.382.381-.89.592-1.43.592-1.115 0-2.022-.907-2.022-2.022 0-.54.21-1.048.592-1.43l3.697-3.697c.765-.764 2.095-.764 2.86 0l1.563-1.566c-1.6-1.597-4.387-1.597-5.987.002L1.24 10.467C.44 11.267 0 12.33 0 13.46c0 2.335 1.9 4.234 4.234 4.234 1.13 0 2.194-.441 2.994-1.24L10.48 13.2c-.237.032-.474.07-.717.07-.721 0-1.42-.144-2.066-.415z"/>
        </g>
    </g>
</svg>
